<svg aria-hidden="true" style="position:absolute;width:0;height:0;overflow:hidden" xmlns="http://www.w3.org/2000/svg">
  <defs>
  <symbol id="cross" viewBox="0 0 32 32">
<path stroke-width="2" stroke-miterlimit="4" stroke-linecap="round" stroke-linejoin="round" d="M24 8l-16 16"></path>
<path stroke-width="2" stroke-miterlimit="4" stroke-linecap="round" stroke-linejoin="round" d="M8 8l16 16"></path>
</symbol>
    <symbol id="dashboard" viewBox="0 0 32 32">
      <path fill="#dcdddf" style="fill:var(--color1, #dcdddf)" d="M5.468 17.316h7.896A1.32 1.32 0 0 0 14.68 16V5.472a1.32 1.32 0 0 0-1.316-1.316H5.468a1.32 1.32 0 0 0-1.316 1.316V16a1.32 1.32 0 0 0 1.316 1.316zm0 10.528h7.896a1.32 1.32 0 0 0 1.316-1.316v-5.264a1.32 1.32 0 0 0-1.316-1.316H5.468a1.32 1.32 0 0 0-1.316 1.316v5.264a1.32 1.32 0 0 0 1.316 1.316zm13.16 0h7.896a1.32 1.32 0 0 0 1.316-1.316V16a1.32 1.32 0 0 0-1.316-1.316h-7.896A1.32 1.32 0 0 0 17.312 16v10.528a1.32 1.32 0 0 0 1.316 1.316zM17.312 5.471v5.264a1.32 1.32 0 0 0 1.316 1.316h7.896a1.32 1.32 0 0 0 1.316-1.316V5.471a1.32 1.32 0 0 0-1.316-1.316h-7.896a1.32 1.32 0 0 0-1.316 1.316z"/>
    </symbol>
    <symbol id="shopping_cart" viewBox="0 0 32 32">
      <path fill="#dcdddf" style="fill:var(--color1, #dcdddf)" d="M9.423 23.896c-1.448 0-2.619 1.184-2.619 2.632s1.171 2.632 2.619 2.632 2.632-1.184 2.632-2.632a2.64 2.64 0 0 0-2.632-2.632zM1.527 4.156a1.32 1.32 0 0 0 1.316 1.316h1.316l4.738 9.989-1.777 3.211c-.961 1.763.303 3.909 2.303 3.909h14.476c.724 0 1.316-.592 1.316-1.316s-.592-1.316-1.316-1.316H9.423l1.448-2.632h9.804a2.62 2.62 0 0 0 2.303-1.355l4.711-8.541a1.305 1.305 0 0 0-.016-1.302 1.309 1.309 0 0 0-1.13-.646H7.066l-.882-1.882A1.304 1.304 0 0 0 5 2.841H2.842a1.32 1.32 0 0 0-1.316 1.316zm21.056 19.74c-1.448 0-2.619 1.184-2.619 2.632s1.171 2.632 2.619 2.632c1.448 0 2.632-1.184 2.632-2.632s-1.184-2.632-2.632-2.632z"/>
    </symbol>
    <symbol id="pharmacy" viewBox="0 0 32 32">
      <path fill="#dcdddf" style="fill:var(--color1, #dcdddf)" d="M21.264 18.632h-3.948v3.948h-2.632v-3.948h-3.948V16h3.948v-3.948h2.632V16h3.948zm6.581-11.844h-3.488l1.514-4.145-3.093-1.119-1.921 5.264h-16.7V9.42l2.632 7.896-2.632 7.896v2.632h23.688v-2.632l-2.632-7.896 2.632-7.896V6.788z"/>
    </symbol>
    <symbol id="users" viewBox="0 0 32 32">
      <path fill="#dcdddf" style="fill:var(--color1, #dcdddf)" d="M19.688 15.806v1.842H6.791v-1.842s0-3.685 6.448-3.685 6.448 3.685 6.448 3.685zm-3.225-8.752a3.224 3.224 0 1 0-6.45 0 3.224 3.224 0 0 0 6.451 0zm3.169 5.067a4.901 4.901 0 0 1 1.898 3.685v1.843h3.685v-1.842s0-3.344-5.583-3.685zm-.866-8.291a3.117 3.117 0 0 0-1.778.544 4.603 4.603 0 0 1 0 5.362 3.123 3.123 0 0 0 1.778.543 3.222 3.222 0 0 0 2.28-5.504 3.222 3.222 0 0 0-2.28-.944z"/>
    </symbol>
    <symbol id="flask" viewBox="0 0 32 32">
      <path fill="#dcdddf" style="fill:var(--color1, #dcdddf)" d="M19.952 12.882v-7.41h1.316a1.314 1.314 0 0 0 .931-2.247 1.314 1.314 0 0 0-.931-.385H10.74a1.314 1.314 0 0 0-.931 2.247c.246.247.582.385.931.385h1.316v7.41L5.177 22.99c-1.783 2.622.095 6.17 3.264 6.17h15.125c3.172 0 5.048-3.548 3.264-6.17l-6.878-10.108z"/>
    </symbol>
    <symbol id="majesticons_logout" viewBox="0 0 32 32">
<path fill="#fff" style="fill: var(--color1, #fff)" d="M8.104 2.84c-1.047 0-2.051 0.416-2.792 1.156s-1.156 1.745-1.156 2.792v18.424c0 1.047 0.416 2.051 1.156 2.792s1.745 1.157 2.792 1.157h7.896c1.047 0 2.051-0.416 2.792-1.157s1.156-1.744 1.156-2.792v-18.424c0-1.047-0.416-2.051-1.156-2.792s-1.745-1.156-2.792-1.156h-7.896zM21.65 9.805c0.247-0.247 0.581-0.385 0.93-0.385s0.684 0.139 0.93 0.385l5.264 5.264c0.247 0.247 0.385 0.581 0.385 0.93s-0.139 0.684-0.385 0.93l-5.264 5.264c-0.248 0.24-0.581 0.372-0.926 0.369s-0.675-0.141-0.919-0.385c-0.244-0.244-0.382-0.574-0.385-0.919s0.13-0.677 0.369-0.926l3.018-3.018h-11.299c-0.349 0-0.684-0.139-0.931-0.385s-0.385-0.582-0.385-0.931c0-0.349 0.139-0.684 0.385-0.931s0.582-0.385 0.931-0.385h11.299l-3.018-3.018c-0.247-0.247-0.385-0.581-0.385-0.93s0.139-0.684 0.385-0.93z"></path>
</symbol>
<symbol id="streamline_finance" viewBox="0 0 32 32">
      <path stroke-width="2.667" stroke-linecap="round" stroke-linejoin="round" d="M20.57 17.143c5.681 0 10.286-2.047 10.286-4.571S26.251 8.001 20.57 8.001c-5.681 0-10.286 2.047-10.286 4.571s4.605 4.571 10.286 4.571z"/>
      <path stroke-width="2.667" stroke-linecap="round" stroke-linejoin="round" d="M10.285 12.571v13.714c0 2.514 4.571 4.571 10.286 4.571s10.286-2.057 10.286-4.571V12.571"/>
      <path stroke-width="2.667" stroke-linecap="round" stroke-linejoin="round" d="M30.857 19.429c0 2.514-4.572 4.571-10.286 4.571s-10.286-2.057-10.286-4.571m10.057-16a15.483 15.483 0 0 0-8.914-2.286C5.737 1.143 1.142 3.2 1.142 5.714c0 1.349 1.326 2.56 3.429 3.429"/>
      <path stroke-width="2.667" stroke-linecap="round" stroke-linejoin="round" d="M4.571 22.857c-2.103-.869-3.429-2.08-3.429-3.429V5.714"/>
      <path stroke-width="2.667" stroke-linecap="round" stroke-linejoin="round" d="M4.571 16c-2.103-.869-3.429-2.08-3.429-3.429"/>
    </symbol>
  </defs>
</svg>
